<svg xmlns="http://www.w3.org/2000/svg" width="256" height="256"><path fill-opacity=".016" d="M0 128.004v128.004l128.25-.254 128.25-.254.254-127.75L257.008 0H0v128.004m.485.496c0 70.4.119 99.053.265 63.672.146-35.38.146-92.98 0-128C.604 29.153.485 58.1.485 128.5" fill="#1976D2" fill-rule="evenodd"/><path fill-opacity=".151" d="M120.882.75a5.707 5.707 0 000 1.5c.065.413-.557.75-1.382.75-.825 0-1.5.661-1.5 1.469 0 .894-.586 1.243-1.5.893-.825-.317-1.5-1.299-1.5-2.183 0-1.422-.202-1.406-1.75.142-1.518 1.519-1.839 4.718-2.419 24.173-.369 12.333-.964 23.349-1.323 24.479-.358 1.131-1.007 11.527-1.442 23.103-.52 13.859-1.192 21.45-1.969 22.227-2.065 2.065-2.77-.813-3.384-13.804-.321-6.801-1.267-16.108-2.102-20.682-.834-4.574-1.882-16.075-2.327-25.557-.794-16.91-.862-17.292-3.509-19.94-2.605-2.604-2.768-2.636-4.665-.919-1.236 1.118-2.715 1.542-3.983 1.139-1.489-.472-2.472.056-3.761 2.024-1.558 2.377-1.726 5.41-1.569 28.299.103 14.871.864 32.641 1.814 42.316 1.77 18.017 1.421 23.199-1.675 24.855-2.807 1.502-3.588.674-5.468-5.793-.915-3.146-3.436-9.98-5.603-15.186-2.166-5.206-5.525-15.111-7.464-22.01-3.742-13.319-5.142-16.301-8.496-18.096-1.743-.933-2.342-.771-3.557.965C49.544 56.061 48.285 57 47.55 57c-2.253 0-2.658 2.976-1.552 11.412 1.212 9.247 4.4 22.236 10.165 41.424 2.494 8.302 5.497 22.267 7.955 37 4.234 25.373 7.507 39.022 11.517 48.024 4.542 10.2 10.329 41.709 10.356 56.39L86 256h65.258l-.61-6.75c-1.533-16.934-1.864-35.938-.723-41.412 1.192-5.718 6.902-16.05 21.429-38.771 4.275-6.686 7.422-12.971 8.765-17.5 1.152-3.887 5.464-14.007 9.582-22.489 6.572-13.537 8.333-16.283 14.405-22.464 3.805-3.874 6.772-7.481 6.593-8.017-.179-.537-1.556-1.894-3.061-3.018-4.094-3.057-9.135-2.477-17.737 2.039-10.695 5.614-12.827 7.995-25.875 28.886l-3.475 5.562-1.399-3.783c-.77-2.081-1.612-8.958-1.87-15.283-.399-9.758-.04-13.773 2.368-26.5 2.665-14.087 2.837-16.583 2.818-41-.017-21.217-.309-26.736-1.59-30-2.581-6.582-8.744-5.59-8.955 1.441-.061 2.049-.319 1.762-1.295-1.441l-1.219-4-1.755 2.652c-1.217 1.839-2.223 7.047-3.281 17-.84 7.891-2.63 20.151-3.977 27.243-1.348 7.092-2.935 17.442-3.527 23C135.666 92.685 134.523 96 131.831 96c-1.639 0-1.826-.918-1.782-8.75.026-4.812.427-13.25.891-18.75 1.293-15.339-1.3-58.265-3.871-64.076C125.67 1.261 124.526 0 123.056 0c-1.131 0-2.109.337-2.174.75M86.607 22.582c-.847 2.207-.757 4.418.18 4.418.433 0 .89-1.35 1.016-3 .251-3.289-.25-3.883-1.196-1.418" fill="#1976D2" fill-rule="evenodd"/><path fill-opacity=".099" d="M124 4.441C124 5.848 123.55 7 123 7s-1-.858-1-1.906c0-1.421-.515-1.772-2.021-1.378-1.551.405-1.765.837-.918 1.858 1.116 1.344-.282 7.291-2.392 10.176-.503.688-.521 1.25-.041 1.251.479 0 .941 1.8 1.026 4 .085 2.199-.269 3.999-.785 3.999-.571 0-.586.687-.039 1.75.495.963.728 2.221.519 2.797-.209.577.503 3.615 1.582 6.753 1.569 4.559 1.75 6.318.9 8.754-.584 1.676-.789 3.321-.455 3.655.334.334.101 1.216-.517 1.961-2.367 2.852-2.79 14.318-1.467 39.814.342 6.592.842 12.677 1.11 13.523.269.847.072 2.991-.437 4.766-.862 3.007-.759 3.227 1.513 3.227 2.031 0 2.274.293 1.456 1.75-.541.963-1.645 3.433-2.453 5.49-1.057 2.689-1.907 3.572-3.026 3.143-1.41-.541-2.113 1.083-1.673 3.867.161 1.024-1.683.933-6.132-.303-2.062-.572-3.75-1.642-3.75-2.377 0-1.846-3.3-2.545-4.739-1.004-1.436 1.537-2.493 5.514-2.646 9.959C96.507 135.634 95 138.878 95 136c0-.733-.271-1.062-.603-.731-.331.332-1.585.23-2.785-.226-1.421-.54-2.811-.371-3.981.485-2.188 1.599-6.323 8.987-4.431 7.915 1.035-.586 1.049-.466.069.591-.986 1.063-.723 1.993 1.318 4.669 1.401 1.837 2.586 4.681 2.633 6.319.046 1.638.521 2.978 1.055 2.978.534 0 .447.629-.194 1.403-.894 1.077-.865 1.514.127 1.885.931.348.733.935-.708 2.1-1.387 1.121-1.504 1.446-.381 1.058 1.258-.435 1.555.018 1.333 2.038-.247 2.252.002 2.507 1.874 1.913 1.989-.632 2.041-.541.666 1.151-.821 1.01-.961 1.517-.311 1.128.649-.39 1.465-.248 1.813.315.348.563-.068 1.292-.925 1.621-.857.329-1.319.984-1.027 1.455.291.472 2.122-.036 4.068-1.129 1.946-1.093 3.253-1.526 2.905-.963-1.092 1.768.495 3.261 2.074 1.951 1.014-.842 1.411-.855 1.411-.048 0 .617-.45 1.122-1 1.122s-1 .45-1 1 .675 1 1.5 1 1.5.45 1.5 1-.398 1-.883 1c-1.33 0-2.083 3.903-.895 4.637.628.388.365 1.015-.669 1.593-.936.524-1.969.687-2.295.362-.325-.326-.066-.592.575-.592.642 0 1.167-.45 1.167-1 0-1.607-2.169-1.152-3.557.747-1.572 2.15-.068 4.399 2.38 3.559 1.243-.426 1.159-.168-.323.998l-2 1.572 2 1.543c1.588 1.225 1.725 1.724.666 2.423-1.07.706-1.008 1.005.314 1.512.906.347 1.383 1.058 1.061 1.58-.343.555.771.76 2.687.496 7.272-1.004 9.324-1.269 10.428-1.348.636-.045.949-.876.695-1.846-.253-.971-.015-2.883.531-4.25.696-1.747 1.01-1.966 1.055-.736.034.963.543 1.75 1.13 1.75.597 0 .8.845.46 1.915-.414 1.305.122 2.459 1.683 3.623 1.259.939 1.599 1.479.754 1.199-1.056-.351-1.543.157-1.561 1.627-.014 1.175.357 2.398.824 2.719.468.321.366 1.858-.227 3.417-.612 1.611-.694 3.086-.19 3.417.488.321.881 1.37.872 2.333-.011 1.207-.817 1.755-2.599 1.765-1.959.012-2.232.237-1.131.934.799.506 1.811.697 2.25.426.439-.271.798.032.798.673s-.67.909-1.488.595c-1.57-.602-1.668 1.713-.174 4.107.503.806.206 1.25-.838 1.25-.89 0-1.34.45-1 1 .34.55-.091 1-.957 1s-3.331.548-5.477 1.218c-4.063 1.268-4.763 2.6-5.418 10.312-.142 1.666-.549 3.501-.905 4.076-.835 1.353.241 5.522 1.263 4.89.429-.265.66 1.531.514 3.991-.17 2.872.104 4.245.765 3.837.641-.396.817.178.466 1.52-.38 1.453-.105 2.156.843 2.156.773 0 1.406-.54 1.406-1.2 0-.933.267-.933 1.2 0 .856.856 7.103 1.2 21.762 1.2h20.561l-.801-12.75c-.44-7.012-.67-18.375-.511-25.25.338-14.601.898-16.091 13.428-35.679 12.341-19.292 15.168-24.454 17.429-31.821 1.182-3.85 5.551-13.952 9.71-22.449 6.173-12.613 8.468-16.285 12.501-20 2.718-2.503 5.816-5.78 6.886-7.282l1.945-2.732-3.305-2.015c-4.349-2.651-8.163-2.534-14.564.446-10.899 5.074-19.453 13.246-24.819 23.711-3.015 5.879-7.621 12.026-8.363 11.161-3.961-4.612-4.17-26.114-.457-47.173 4.299-24.391 4.3-61.346 0-69.632l-1.468-2.831-.977 3.398c-.711 2.473-1.001 2.794-1.067 1.179-.067-1.661-.516-2.055-1.789-1.566-1.063.408-1.251.802-.5 1.052 1.663.554 1.498 2.848-.417 5.77-.889 1.357-1.381 3.366-1.094 4.465.34 1.298.03 1.998-.884 1.998-1.253 0-1.921 1.953-1.489 4.355.084.471-.334 1.443-.93 2.161-.78.939-.776 1.496.013 1.984.787.487.766 1.076-.074 2.089-.842 1.014-.855 1.411-.048 1.411.617 0 1.069.337 1.004.75-.066.413-.031.975.077 1.25 1.107 2.832.897 9.903-.389 13.117-.855 2.136-1.22 3.89-.812 3.898.408.009.067.459-.758 1-1.244.817-1.268 1.134-.143 1.86.984.635 1.041 1.07.209 1.584-.631.39-.867 1.593-.524 2.673.343 1.08.085 2.613-.573 3.406-.659.793-1.335 4.934-1.504 9.202-.365 9.218-.516 10.447-1.446 11.76-.389.55-.746 3.323-.792 6.163-.047 2.839-.54 6.81-1.096 8.824-.999 3.619-.627 6.513.837 6.513.415 0 .54 1.125.277 2.5-.318 1.661-1.141 2.5-2.451 2.5-1.086 0-2.775.99-3.755 2.2-1.675 2.068-1.925 2.104-4.209.608-2.454-1.608-5.48-8.808-3.701-8.808 1.203 0 4.55-7.769 5.475-12.709.623-3.33.524-3.637-.82-2.524-.842.697-2.263.987-3.157.643-1.96-.752-2.005-2.645-.557-23.555 1.336-19.306-.182-60.795-2.421-66.153C125.764 2.191 124 1.098 124 4.441M113.158 6c0 1.375.227 1.938.504 1.25.278-.687.278-1.812 0-2.5-.277-.687-.504-.125-.504 1.25m34.958 8.668c-.064.643-.407 1.993-.763 3-.502 1.421-.369 1.576.594.688.682-.629 1.026-1.979.763-3s-.53-1.33-.594-.688m-64.432 4.714c-.376.98-.643 2.982-.594 4.45.084 2.487.156 2.441 1.053-.674 1.039-3.612.664-6.702-.459-3.776m4.816 5.369c0 3.712.364 7.312.809 7.999.523.808.267 1.25-.725 1.25-1.243 0-1.345.499-.538 2.622.681 1.789.659 3.028-.068 3.904-1.233 1.487-.357 5.9 1.847 9.303 1.8 2.779 2.383 15.318.761 16.386-1.47.968-1.406 21.654.07 22.591.602.382 1.158 2.944 1.236 5.694.27 9.48 2.62 20.85 4.659 22.543.732.607 1.066 1.791.744 2.631-.523 1.363-.264 1.361 2.406-.019 2.191-1.133 3.016-2.298 3.083-4.351.05-1.542 1.013-5.729 2.141-9.304 2.529-8.021 2.554-8.938.225-8.329-1.702.445-1.906-.535-2.56-12.317-.392-7.041-1.402-15.963-2.245-19.828-.845-3.87-1.842-15.397-2.221-25.66-.752-20.41-1.185-21.867-6.496-21.865l-3.128.002v6.748M91 24.5c0 .825.45 1.5 1 1.5s1-.675 1-1.5-.45-1.5-1-1.5-1 .675-1 1.5M51.685 55.856c-1.716.677-1.703.818.25 2.585 1.136 1.028 2.058 2.587 2.05 3.464-.012 1.266-.192 1.317-.868.25-.633-.999-1.014-.701-1.48 1.157-.346 1.376-.904 3.219-1.24 4.095-.407 1.061-.06 1.593 1.04 1.593.908 0 1.578.563 1.488 1.25-.317 2.446.088 3.86.953 3.325.483-.298 1.169.909 1.524 2.683.378 1.892.222 3.367-.379 3.568-1.806.602-1.09 2.004.774 1.517 2.164-.566 4.725 3.622 4.426 7.237-.11 1.331.214 2.42.721 2.42 1.154 0 2.524 3.919 2.185 6.25-.14.963.299 1.75.975 1.75.676 0 .94.289.587.643-.354.353-1.415.015-2.359-.75-1.29-1.048-1.52-1.067-.926-.08.471.783.112 2.063-.891 3.17-1.58 1.747-1.564 1.92.271 2.902 2.281 1.221 3.187.587 3.284-2.302.069-2.049.085-2.05.93-.083.473 1.1.891 1.645.93 1.211.038-.435.695-.21 1.46.5.764.709 1.175 2.189.912 3.289-.912 3.816-.374 9.962 1.226 14 1.514 3.822 6.472 7.254 6.472 4.48 0-.561 1.157-2.853 2.572-5.094s2.427-4.145 2.25-4.23c-3.41-1.647-4.533-3.317-6.867-10.222-1.476-4.363-3.856-10.701-5.289-14.083-1.434-3.382-4.229-11.908-6.213-18.947-5.071-18-5.958-19.444-10.768-17.548m149.982 41.811c-1.117 1.116-.747 2.333.711 2.333.757 0 1.937-.675 2.622-1.5 1.034-1.246.914-1.5-.711-1.5-1.076 0-2.256.3-2.622.667M189.5 101c-.34.55-1.491 1-2.559 1s-1.941.477-1.941 1.059-.419.8-.931.484c-1.263-.781-1.967.566-2.509 4.798-.359 2.808-.151 3.439.992 3.001.797-.306 1.448-1.183 1.448-1.949s.338-1.412.75-1.436c.412-.023 2.775-1.822 5.25-3.997 3.833-3.369 4.175-3.955 2.309-3.957-1.205-.002-2.469.447-2.809.997m-127.421 2.583c.048 1.165.285 1.402.604.605.289-.722.253-1.585-.079-1.917-.332-.332-.568.258-.525 1.312m13.485 42.124c-.542 1.425-.428 1.54.56.56.684-.679.991-1.486.683-1.793-.308-.308-.867.247-1.243 1.233m21.451 3.984c.009.445.452 1.484.985 2.309.835 1.293.971 1.266.985-.191.008-.93-.435-1.969-.985-2.309-.55-.34-.993-.254-.985.191m-3.569 25.396c-1.165 1.886 1.262 3.4 3.059 1.909 1.265-1.05 1.325-1.487.292-2.142-1.753-1.113-2.554-1.057-3.351.233m.554.972c0 .582.45.781 1 .441s1-.816 1-1.059-.45-.441-1-.441-1 .477-1 1.059m8.29 3.741c-.88.559-.705 1.084.641 1.925 1.594.995 1.78.886 1.343-.785-.279-1.067-.567-1.933-.641-1.925-.073.009-.678.362-1.343.785M93.5 182c.34.55.816 1 1.059 1s.441-.45.441-1-.477-1-1.059-1-.781.45-.441 1m11.5 11c0 .55.477 1 1.059 1s.781-.45.441-1-.816-1-1.059-1-.441.45-.441 1m3.473 2.044c-.325.526.336.956 1.468.956 2.415 0 2.658-.556.591-1.349-.807-.31-1.734-.133-2.059.393M113 204c0 .55.477 1 1.059 1s.781-.45.441-1-.816-1-1.059-1-.441.45-.441 1" fill="#1976D2" fill-rule="evenodd"/><path fill-opacity=".229" d="M123.575 8.319c-.342 2.3-.795 5.531-1.007 7.181-.212 1.65-.687 3.753-1.054 4.673-.447 1.119.009 2.037 1.377 2.769 1.699.909 1.882 1.525 1.081 3.632-.688 1.808-.576 3.313.387 5.232 2.39 4.758 2.571 39.942.27 52.194-.361 1.925-.838 8.563-1.059 14.75l-.402 11.25h2.447c1.429 0 2.705-.728 3.065-1.75.34-.962 1.462-2.69 2.493-3.84 1.031-1.149 2.273-3.478 2.76-5.176.837-2.917.74-3.076-1.774-2.91l-2.659.176.153-11c.695-49.94.037-72.931-2.257-78.91-1.271-3.311-3.201-2.438-3.821 1.729M158 18.164c0 4.08-2.374 10.461-4.108 11.039-.72.24-.886 1.239-.441 2.644.564 1.775 1.01 2.015 2.087 1.121 1.152-.956 1.299 1.062.92 12.698-.248 7.609-.678 15.771-.957 18.138-.554 4.713-2.988 10.196-4.527 10.196-.536 0-.974.477-.974 1.059s.45.781 1 .441c1.284-.793 1.271.125-.035 2.566-.78 1.457-.711 1.934.282 1.934.724 0 1.41 1.125 1.524 2.5.113 1.375-.224 2.5-.751 2.5-.526 0-.698.675-.382 1.5.317.825.078 1.5-.531 1.5s-1.054.337-.989.75c.066.412.031.975-.077 1.25-.215.552-.469 2.883-1.521 14-.391 4.125-.775 7.725-.853 8-.078.275.474 1.974 1.227 3.776 1.182 2.825 1.164 3.512-.125 5-1.821 2.1-4.54 9.835-4.614 13.124l-.053 2.4 1.638-2.339c4.44-6.339 4.768-6.242 6.619 1.964.939 4.166 1.979 11.356 2.311 15.977.59 8.222.557 8.391-1.533 7.844-2.715-.71-2.71.023.016 2.387 1.941 1.683 1.974 1.867.333 1.867-1 0-1.535.284-1.188.631.347.348.182 1.473-.368 2.5-.678 1.266-.666 1.869.035 1.869.569 0 1.035.436 1.035.969 0 .532-.562.757-1.25.498-1.308-.492-4.75 4.663-4.75 7.114 0 .78-.48 1.419-1.067 1.419s-.802-.836-.478-1.859c.355-1.117-.083-2.414-1.096-3.25-1.537-1.268-1.58-1.191-.488.859.741 1.391.814 2.25.189 2.25-.6 0-.754 1.281-.379 3.155.451 2.256.302 2.952-.525 2.441-1.558-.963-1.521 2.639.044 4.204.933.933.92 1.2-.059 1.2-.692 0-.981.45-.641 1 .34.55.238 1-.227 1-.464 0-.87.787-.901 1.75-.031.963-.403 3.325-.826 5.25-1.005 4.573-1.185 11.695-.316 12.563.376.376 1.491.336 2.477-.091 3.645-1.574 4.527-1.388 2.746.58-.946 1.046-2.105 1.663-2.575 1.372-.47-.29-.629.062-.352.782.287.749-1.637 3.006-4.485 5.261-2.743 2.173-5.203 4.513-5.467 5.201-.264.687.638 3.248 2.003 5.691 2.345 4.195 2.404 4.669 1.066 8.552-.779 2.261-1.059 4.332-.622 4.602.437.27.786 2.853.775 5.739-.035 9.427-.594 8.748 7.204 8.748 5.438 0 7-.323 7-1.445 0-.795-.481-10.452-1.068-21.459-1.508-28.242-2.062-26.596 21.344-63.399 3.08-4.842 6.37-10.917 7.311-13.5 9.091-24.942 17.176-40.714 25.163-49.092 3.438-3.605 6.25-6.861 6.25-7.236 0-1.641-4.771.798-8.421 4.305-6.921 6.65-7.806 4.298-1.331-3.535l4.249-5.139-5.999 5.138c-7.336 6.284-9.064 8.214-9.947 11.112-.377 1.237-1.105 2.25-1.618 2.25-.513 0-.933.477-.933 1.059s.369.831.819.553c.451-.279.613.897.361 2.612-.401 2.736-.607 2.913-1.679 1.447-1.892-2.588-2.927-1.971-1.176.702.855 1.305 1.302 3.339.993 4.521-.473 1.807-.809 1.946-2.117.877-1.349-1.103-1.415-1.017-.497.642.776 1.403.679 2.87-.363 5.5-2.558 6.455-8.623 18.138-9.146 17.615-.281-.281-1.063-.052-1.738.508-1.978 1.641-2.59-3.047-1.449-11.095.56-3.945 1.259-7.564 1.554-8.041.294-.476 1.13-4.136 1.857-8.133.727-3.997 1.682-8.128 2.122-9.181 1.668-3.995-1.557-.395-5.115 5.71-4.206 7.215-8.211 12.704-9.269 12.704-1.292 0-3.329-9.203-3.88-17.532-.533-8.051.377-17.027 3.241-31.968.843-4.4 1.921-16.55 2.396-27 .962-21.192-.005-37.019-2.408-39.423-1.341-1.341-1.506-1.113-1.506 2.087M93.255 20.25c.258.688.159 3.637-.221 6.555-.487 3.748-.28 6.094.704 7.992.845 1.628 1.154 3.964.785 5.93-.353 1.883-.082 4.195.646 5.509.69 1.245 1.583 4.514 1.983 7.264.401 2.75.511-3.228.244-13.284-.266-10.056-.738-18.943-1.047-19.75-.31-.806-1.238-1.466-2.063-1.466-.825 0-1.289.563-1.031 1.25M54.488 59.023c.85 5.137 1.307 5.927 2.403 4.153.893-1.444 5.144 13.643 5.123 18.18-.008 1.663 1.105 4.168 2.666 6 1.641 1.925 2.361 2.368 1.858 1.144-.452-1.1-2.33-7.4-4.173-14-3.917-14.029-5.039-16.985-7.099-18.694-1.335-1.108-1.429-.72-.778 3.217m43.163 1.445c-.31.807-.133 1.734.393 2.059.526.325.956-.336.956-1.468 0-2.415-.556-2.658-1.349-.591M121 62.417c0 .779-.562 1.643-1.25 1.921-.687.277-.334.54.786.583 1.395.054 2.035-.55 2.035-1.921 0-1.1-.353-2-.785-2-.432 0-.786.638-.786 1.417m28.547 2.833c-1.012 4.641-1.021 5.619-.047 5.626.55.004.926-.713.835-1.592-.091-.88.235-2.654.725-3.942.549-1.444.524-2.342-.066-2.342-.526 0-1.177 1.013-1.447 2.25m-28.809 1.364c-.637 1.032.842 4.17 1.582 3.357.236-.259.113-1.341-.273-2.405-.386-1.063-.975-1.492-1.309-.952m-22.905 1.594c-.864 2.697-.105 13.759 1.038 15.137 1.122 1.352.803 6.755-.526 8.905-1.069 1.731-.568 13.465.675 15.788l1.243 2.321 2.118-2.864c1.166-1.575 2.663-4.371 3.329-6.214 1.078-2.988 1.024-3.319-.5-3.066-1.921.32-2.562-3.044-3.936-20.639-.454-5.829-1.239-10.076-1.901-10.292-.62-.203-1.313.213-1.54.924m106.25 27.157c.23.2 1.542.949 2.917 1.663 2.287 1.189 2.383 1.158 1.128-.364-.755-.915-2.068-1.664-2.917-1.664-.849 0-1.357.164-1.128.365M70.676 100.5c.327 1.65.969 3.675 1.429 4.5 1.498 2.693.982-1.125-.609-4.5l-1.414-3 .594 3M76.5 117c-.34.55.335 1 1.5 1s1.84-.45 1.5-1c-.34-.55-1.015-1-1.5-1-.485 0-1.16.45-1.5 1m67 54c.34.55.816 1 1.059 1s.441-.45.441-1-.477-1-1.059-1-.781.45-.441 1m5.124 30.539c-.343.893-.595 2.15-.561 2.793.035.642.495.09 1.022-1.227.527-1.318.779-2.574.56-2.793-.219-.219-.679.333-1.021 1.227" fill="#1976D2" fill-rule="evenodd"/></svg>